<?xml version="1.0" encoding="UTF-8"?>
<svg id="Layer_1" data-name="Layer 1" xmlns="http://www.w3.org/2000/svg" viewBox="0 0 274.97 415.57">
  <defs>
    <style>
      .cls-1 {
        fill: #ffdbac;
      }

      .cls-1, .cls-2, .cls-3, .cls-4, .cls-5, .cls-6, .cls-7 {
        stroke-width: 0px;
      }

      .cls-2 {
        fill: #fed3a6;
      }

      .cls-3 {
        fill: #231f20;
      }

      .cls-4 {
        fill: #f1c27c;
      }

      .cls-5 {
        fill: #e77750;
      }

      .cls-5, .cls-7 {
        fill-rule: evenodd;
      }

      .cls-6 {
        fill: #221c17;
      }

      .cls-7 {
        fill: #f68e6a;
      }
    </style>
  </defs>
  <path id="face_background" data-name="face background" class="cls-2" d="M115.33,109.38c-5.19,1.79-10.38,3.57-15.57,5.36l-10.72,4.09-7.15,6.13-10.72,9.19s-5.62,5.11-5.62,6.64-6.64,14.81-6.64,14.81c-.63,4.68-1.27,9.37-1.9,14.05-.91,5.45-1.82,10.89-2.72,16.34l-.99,15.05c-.41,4.97-.81,9.94-1.22,14.9-.51,4.03-1.02,8.06-1.53,12.09l-1.34,9.27c-.43,4.26-.85,8.51-1.28,12.77-.26,3.57-.51,7.15-.77,10.72-.09,3.74-.17,7.49-.26,11.23.34,4.26.68,8.51,1.02,12.77.43,3.32.85,6.64,1.28,9.96.51,3.4,1.02,6.81,1.53,10.21.85,3.91,1.7,7.83,2.55,11.74.94,4.43,1.87,8.85,2.81,13.28,1.79,5.96,3.57,11.91,5.36,17.87,4.51,8.09,9.02,16.17,13.53,24.26l15.32,15.32c6.21,4.6,12.43,9.19,18.64,13.79,7.91,2.55,15.83,5.11,23.74,7.66,8.17.26,16.34.51,24.51.77,7.15-.26,14.3-.51,21.45-.77l20.68-7.66c4.94-4.77,9.87-9.53,14.81-14.3,4.26-5.11,8.51-10.21,12.77-15.32,3.91-9.11,7.83-18.21,11.74-27.32,1.79-7.23,3.57-14.47,5.36-21.7,2.3-11.49,4.6-22.98,6.89-34.47.57-7.12.94-14.74.99-22.8.05-6.73-.12-13.15-.45-19.22-.98-4.54-1.97-9.09-2.95-13.63-5.21-11.59-7.74-21.31-9.08-27.84-.72-3.52-1.94-14.23-4.37-35.65-.85-7.49-1.84-16.36-6.34-27.11-1.28-3.06-2.54-5.53-3.45-7.21-3.71-4.08-7.41-8.16-11.12-12.24-1.25-1.62-2.5-3.24-3.75-4.86-1.09-1.85-2.17-3.7-3.26-5.55-.98-.6-2.2-1.24-3.64-1.79-1.61-.61-2.78-.82-7.28-1.66-1.33-.25-2.78-.52-4.09-.77-3.56-.49-7.12-.97-10.68-1.46-7.53-.62-15.05-1.24-22.58-1.86-3.66.49-7.32.98-10.98,1.47-7.2.81-14.39,1.62-21.59,2.44-3.66.34-7.32.68-10.98,1.02Z"/>
  <path id="left_ear" data-name="left ear" class="cls-1" d="M251.65,252.95c.28-.51,1.03-1.73,2.55-2.55,1.67-.91,3.26-.79,3.82-.72,1.7-.06,3.4-.11,5.11-.17l4.26,2.53,3.4,3.71s2.04,3.71,1.87,4.22c-.17.51,0,5.23,0,5.23l-.85,5.06s-1.02,2.53-.85,3.21c.17.68-.34,4.73-.34,4.73l-1.36,7.93c.03,1.71.06,3.42.09,5.13l-.17,3.32c.05.67.1,1.34.14,2.02.06.94.1,1.77.12,2.06.08,1.77-.1,3.47-.26,4.89-.16,1.51-.44,3.45-.94,5.7-.77,3.5-1.11,5.25-2.13,7.32-.91,1.83-1.53,3.08-2.99,4.05-2.29,1.52-4.83,1.14-5.62,1.02-2.42-.36-4.82-1.76-5.48-3.29-.06-.13-.21-.47-.33-.84-.26-.81-.27-1.32-.76-2.55-.89-2.21-2.16-3.79-3.13-4.79.45-2.81,1.1-6.92,1.79-11.93.85-6.14,1.49-11.5,1.43-11.51-.01,0-.11.53-.54,3.08.43-5.57.85-11.15,1.28-16.72.04-3.23.09-6.47.13-9.7-.09-3.49-.17-6.98-.26-10.47Z"/>
  <path id="left_ear-2" data-name="left ear" class="cls-1" d="M44.63,251.53l-5.62-2.21-5.11-.17-4.26,2.55-3.4,3.74s-2.04,3.74-1.87,4.26c.17.51,0,5.28,0,5.28l.85,5.11s1.02,2.55.85,3.23.34,4.77.34,4.77l1.36,8,1.87,6.3.68,4.6,1.36,4.6,1.53,5.62.17,8.34s.68,3.57,1.7,4.6,3.91,3.91,5.28,3.57c1.36-.34,6.81.51,9.53-3.74,2.72-4.26,1.87-7.32,1.87-7.32l-3.74-16.38-2.04-9.53c-.53-4.67-1.06-9.33-1.59-14l-.11-9.15.34-12.04Z"/>
  <path id="ear_det" data-name="ear det" class="cls-4" d="M45.67,296.79l-3.96.89-1.79-1.15,2.17-.26s-1.53-1.79-2.17-1.79-2.81-.38-3.45-.38-.89.13-1.02-.38-.26-2.81-.26-2.81c0,0,.13-2.3.13-2.68s1.02-1.91,1.02-1.91l2.68-.77,2.04.38s1.15-.13,1.66.38,1.28,1.28,1.53,1.91.26,2.04.38,3.32,1.15,2.94,1.15,2.94c0,0-.13,1.28-.26,1.66s.13.64.13.64Z"/>
  <path id="ear_det-2" data-name="ear det" class="cls-4" d="M32.78,275.34l-.38-4.47,1.28-4.6,3.32-3.96,2.94-.13,2.81,2.3.89,4.09s.26,1.53-.89,1.53c-1.25,0-2.47.44-3.7.64-1.37.22-2.06.33-2.55.64-.82.51-1.28,1.26-1.53,1.79-.72.72-1.45,1.45-2.17,2.17Z"/>
  <polygon id="ear_det-3" data-name="ear det" class="cls-4" points="36.99 259.64 34.31 261.94 32.14 266.79 31.25 271.51 31.5 275.72 31.25 277.89 30.48 282.36 29.72 282.74 30.1 276.49 29.08 270.23 27.55 264.62 28.06 261.17 30.35 257.6 31.89 256.83 34.44 257.21 36.61 258.87 36.99 259.64"/>
  <path id="Hair" class="cls-6" d="M51.95,220.26l3.06-34.04,4.09-19.74,2.72-17.7s12.6-18.38,15.66-18.38,9.19-10.55,9.19-10.55c0,0,6.47-2.04,19.4-6.13,12.94-4.09,32.68-6.47,32.68-6.47l20.09-2.72,32.34,3.4s15.66,2.38,15.32,4.09c-.34,1.7,12.6,16,12.6,16,0,0,10.89,12.94,9.19,14.64-1.7,1.7,5.45,22.47,5.45,22.47l3.06,18.04,3.4,34.04,3.06,15.66,11.91,5.45,9.87.68,6.13-4.77s-2.72.68-4.43,0c-1.7-.68,3.74-3.74,3.74-3.74,0,0-7.15,4.09-9.19,2.38-2.04-1.7-2.04-4.09-2.04-4.09l5.79-2.38,6.81-7.15-5.45.34-4.43-5.11,10.21-11.57,2.72-8.17-1.36-6.81s1.36-16.68,0-16.34-3.4-8.17-3.4-8.17l-1.36-13.28-4.43-5.79,4.09-12.94-2.04-7.49.34-4.77c.61-.79,6.5-10.67,8.21-11.06-1.45-1.79-2.89-3.57-4.34-5.36-1.4-.88-2.81-1.76-4.21-2.64l-20.09-31.66-1.36-19.06-3.4-7.83-5.79-4.43-6.47-7.15-5.79-2.38-3.06,2.72-1.7-3.4-4.43-9.19-4.43-9.19-2.72,1.36-1.7,6.81-14.64-9.53-10.21-.34-3.06-3.74-6.81,2.04-9.53-1.02-7.02-.94c-3.11-.26-6.21-.51-9.32-.77l7.83,3.06.34,2.72-11.23-.68-4.09,1.36-2.04,2.72c-3.02-1.96-6.04-3.91-9.06-5.87-2.2-.77-4.4-1.53-6.6-2.3l-8.17-3.4h-7.15l-6.47,3.74,5.11,1.7,5.79,5.79-7.83-1.7-11.23,1.02-4.77,1.02,4.43,4.09,6.81,6.13-17.7-5.45-6.81,6.81-6.47,5.45-5.79,1.7-6.13,6.13-3.74,4.43v2.38l7.49-4.43-5.79,8.17-7.15,3.74-5.45,4.43-5.79,1.02-3.06,1.36-6.13,1.7-5.79,2.72-2.38-4.77-3.4,2.38s-2.72-5.45-3.06-4.09c-.34,1.36-5.11,11.91-5.11,11.91l-.34,6.13-2.04,8.51.68,11.91c-.23,2.7-.47,5.39-.7,8.09-.6,3.23-1.19,6.47-1.79,9.7.21,4.47-.8,30.25.98,39.62-.05,6.61.22,12.12.51,16.21.49,6.89,1.04,9.48,1.53,11.36.93,3.58,2,5.86,4.13,10.47,1.53,3.31,3.99,8.68,7.26,15.87,1.4,1.75,2.81,3.5,4.21,5.26,1.21,1.43,2.41,2.85,3.62,4.28.72,1.58,1.45,3.16,2.17,4.74.64,1.6,1.28,3.19,1.91,4.79l2.38,4.43,6.47,18.38,1.36,2.72c2.83,2.82,4.39,4.63,5.26,5.7.25.31,1.34,1.66,2.55,3.19.55.69.98,1.23,1.25,1.57.75.95,1.75,2.21,2.92,3.7.48-5.36.96-10.72,1.45-16.09.63-4.92,1.26-9.84,1.89-14.77v-12.94Z"/>
  <path id="beard" class="cls-6" d="M48.55,265.53l1.02,14.98,7.15,15.66,3.4,7.15,4.77,9.53,11.23,8.17c2.34,2.86,4.68,5.72,7.02,8.59,2.13,1.57,4.26,3.15,6.38,4.72l5.04-7.91c.96-2.15,1.91-4.3,2.87-6.45.79-1.22,1.57-2.44,2.36-3.66.39,2.25.78,4.5,1.18,6.76l-.68,7.83-.68,7.83-1.7,5.79s1.36,2.72,1.36,3.74c0,1.66,1.59,3.41,4.77,8.17,1.05,1.57,2.43,3.59,4.11,5.91l4.81,4.34c1.25,1.3,2.5,2.61,3.74,3.91,2.73,2.85,9.43,3.77,9.32,4.6,3,1.12,6,2.24,8.99,3.36l11.57,3.06s3.4.34,5.45.34,6.81.68,8.17.68,7.15-1.02,7.15-1.02c3.16-.5,6.32-.99,9.47-1.49,2.33-1.22,4.65-2.44,6.98-3.66,2.92-1.33,6.31-3.15,9.87-5.62,3.91-2.71,7.03-5.51,9.42-7.96l1.7-7.15.34-8.17-1.7-9.19-1.7-12.26s-1.7-8.85-1.7-9.87,1.02-5.79,1.02-5.79l6.47,2.38c1.53.62,3.06,1.24,4.59,1.86.82.57,2.92,2.13,4.26,4.27.27.43.65,1.18,1.03,2.22.19.53.33,1.21.33,2.21,0,2.61.43,5.22.34,7.83-.09,2.62,0,7.89.72,19.32,4.08-8.96,8.16-17.93,12.24-26.89,2.26-3.6,4.52-7.21,6.78-10.81l5.11-9.87c.83-2.06,1.64-4.27,2.41-6.64.74-2.28,1.37-4.48,1.9-6.56.39-2.13.91-5.3,1.28-9.19.48-5.05.53-9.19.51-12.64-.02-3.74.29-7.5,0-11.23,0,0-.21-3.14.38-6.26.23-1.2.53-2.14.82-2.89.36-.92.75-1.65,1.06-2.19.05.34.13.89.21,1.57.34,3,.24,5.28.21,5.94-.18,4.79.43,10.38-.02,21.82-.25,6.57-.86,15.24-2.31,25.54l-2.72,16.68-2.72,17.02c-1.4,5.59-2.81,11.18-4.21,16.77-1.32,4.96-2.64,9.93-3.96,14.89l-13.28,23.15-6.47,7.83c-3.28,2.3-6.55,4.6-9.83,6.89-5.45,2.78-10.89,5.56-16.34,8.34-8.23,1.25-16.45,2.5-24.68,3.74-8.96-.11-17.93-.23-26.89-.34-7.15-.85-14.3-1.7-21.45-2.55-4.43-1.99-8.85-3.97-13.28-5.96-3.59-2.13-7.18-4.26-10.77-6.38l-12.94-16.34-7.15-8.51-5.79-8.51-7.15-17.36-4.77-23.49-3.74-12.94c-.97-4.31-4.46-19.84-5.29-26.55-.19-1.49-.39-3.72-.94-7.79-.2-1.45-.41-2.92-.58-5.01-.15-1.81-.21-3.3-.23-4.31.06-3.58.11-7.15.17-10.73.47-2.64.95-5.27,1.42-7.91l3.4-1.02-.68,15.66Z"/>
  <path id="facial_hair" data-name="facial hair" class="cls-6" d="M101.65,313.53c1.95-.9,3.9-1.79,5.85-2.69,1.96-.43,3.91-.85,5.87-1.28,2.81-.77,5.62-1.53,8.43-2.3,3.12-.72,6.23-1.44,9.35-2.16,2.31-1.02,4.63-2.03,6.94-3.05,1.79-.72,3.57-1.45,5.36-2.17,1.46-.56,3.2-1.12,5.19-1.53,1.53-.32,2.95-.5,4.21-.6l4.72-.26c1.8.27,3.33.4,4.51.47.33.02,1.21.06,4.04.09,1.76.01,3.27,0,4.43,0,1.77.01,3.43.02,5.87.04,1.83.01,3.03.03,4.64.34,1.09.21,1.97.48,2.55.68,1.51.62,2.64,1.3,3.4,1.83.81.56,1.42,1.09,2.34,1.87.68.58.97.86,2.26,2.04.92.84,2,1.82,2.24,2.04,1.08.95,3.02,2.06,6.73,2.63,2.82,1.14,5.63,2.27,8.45,3.41,1.31.96,2.78,2.16,4.28,3.64,1.43,1.42,2.6,2.8,3.54,4.05.52,1.47.86,2.74,1.09,3.7.33,1.39.72,3.08.8,5.3.04,1.14,0,2.08-.06,2.74.09,1.16.18,2.5.22,3.99.03.91.06,2.25.03,3.86-.04,2.82-.2,3.55-.26,5.55-.04,1.37-.03,3.38.22,5.87-1.3-.91-2.59-1.81-3.89-2.72l-5.11-4.09-6.47-6.47c-.35-.7-.7-1.4-1.05-2.1-1.05-1.13-2.1-2.27-3.15-3.4-.99-1.22-1.99-2.44-2.98-3.66-.85-.94-1.7-1.87-2.55-2.81-1.46-.6-3.11-1.18-4.94-1.7-2.13-.6-4.1-1.01-5.87-1.28-2.1-.62-4.2-1.25-6.3-1.87-2.48-.41-5.57-.72-9.11-.6-3.95.14-7.33.76-9.96,1.45-2.81.65-5.62,1.3-8.43,1.96-2.84.31-5.67.62-8.51.94-1.98.16-3.95.32-5.93.48-1.16.15-2.32.29-3.47.44-.81.19-1.62.38-2.43.57-.8.19-1.05.32-1.6.45-1.26.28-2.11.23-2.67.26-.96.05-2.34.44-4.09,1.96-1.3.57-2.61,1.13-3.91,1.7-1.93,1.7-3.86,3.4-5.79,5.11-1.28,2.47-2.55,4.94-3.83,7.4-.63,2.62-1.26,5.24-1.89,7.86-2.92,5.71-4.2,6.79-4.81,6.6-1.28-.4-.37-6.58-2.14-13.08-.06-.23-.14-.32-.14-.54,0-3.06,1.36-8.51,1.36-8.51-.04-.47-.1-1.19-.18-2.05-.15-1.8-.17-2.23-.26-3.32,0,0-.09-1.1-.59-5.86l-.34-1.7c.26-1.68.52-3.37.78-5.05.99-1.49,1.98-2.99,2.96-4.48Z"/>
  <path id="eyebrow" class="cls-6" d="M134.14,203.12c1.08-.69.27-9.27-1.1-11.27-.81-1.17-1.9-1.76-2.55-2.04-.64-.21-1.28-.43-1.91-.64l-.15-3.64s-3.23,2.72-5.28,2.38-6.64-1.87-8.51-1.87-3.23-.34-2.55,0c.68.34,5.28,2.04,5.28,2.04l-9.02-.34c.57.35,1.15.7,1.72,1.04l-5.47-.53c-.18-.12-.35-.24-.53-.36-2.04.12-4.07.24-6.11.36h-8.85l-5.45,1.36-2.38.51s-2.92,1.14-4.43,1.53c-1.39.36-4.19.7-4.7.57-.48.43-.95.87-1.43,1.3-2.12,1.1-4.24,2.2-6.36,3.3,1.64.14,3.29.28,4.93.41-1.41.96-2.91,2.07-4.47,3.38-1.66,1.4-3.1,2.78-4.34,4.09,1.38-.24,2.76-.49,4.13-.73,1.49-.64,2.98-1.28,4.47-1.91,1.79-.72,3.57-1.45,5.36-2.17,1.86-.54,3.39-.91,4.47-1.15,1.7-.38,1.94-.38,3.34-.73,2.03-.52,2.26-.72,3.66-.98.68-.13,1.04-.15,3.15-.34,4.21-.37,3.66-.33,4.15-.37,1.56-.13,3.57-.28,5.93-.44.87.02,2.24.04,3.91.02,2.16-.02,2.41-.08,4.2-.1,1.71-.01,3.52.03,5.44.16,1.4.09,2.74.23,4.02.38,1.98.69,3.61,1.13,4.77,1.4.92.22,1.85.41,3.47.83,1.04.27,1.9.51,2.47.67,2.24,1.29,4.48,2.57,6.72,3.86Z"/>
  <path id="glasses" class="cls-3" d="M55.91,216.68l2.55-6.47,6.81-6.64c2.87-1.19,5.73-2.38,8.6-3.57l12-3.06,13.28-1.19,15.66.17,11.91,3.06,6.98,3.74,5.28,7.49,1.19-.68.34-1.53,2.38-1.19,4.77-1.7,7.32-1.02,8,.17,6.64.68.85,1.36,3.06-.17.26-2.89,2.72-3.91,4.6-4.26,2.72-2.72,5.19-1.87,6.55-2.21,9.7-1.87,7.91-.68,10.72-.85,9.79,1.53,8.17,2.21,6.64,2.89,4.77,5.79,2.21,6.3.51,1.53,6.11-.74c1.3-.19,3.09-.28,5.15.13.9.18,1.7.42,2.38.68.06.87.11,1.73.17,2.6-.56.24-1.17.47-1.83.68-2.06.65-3.96.88-5.51.91-1.7.23-3.4.45-5.11.68l-.34,9.02-.51,9.19-1.19,7.15-2.04,5.79-3.06,6.47-4.6,6.64-5.62,4.77c-2.33,1.13-4.65,2.27-6.98,3.4-2.72.68-5.45,1.36-8.17,2.04-3.29.28-6.58.57-9.87.85l-8.68-.68c-3.63-1.25-7.26-2.5-10.89-3.74-2.04-1.59-4.09-3.18-6.13-4.77-1.82-2.1-3.63-4.2-5.45-6.3-1.3-2.16-2.61-4.31-3.91-6.47-1.13-2.33-2.27-4.65-3.4-6.98l-2.04-8.17-1.19-6.13-.68-6.13c.16-1.14.28-2.39.34-3.74.05-1.15.04-2.23,0-3.23l-5.62-1.02-6.13-1.02-5.28-.34-7.15,1.36-5.11,1.87c-1.19.74-2.38,1.48-3.57,2.21.23,1.59.45,3.18.68,4.77l-.17,10.21-.51,8.51-1.7,10.21-2.89,7.66-3.23,5.28-5.62,6.64-4.94,4.09-5.45,2.55-4.94,1.7-8.17,1.53-8.34.51-8.68-.68-6.64-2.38-6.13-3.06-5.11-4.77-3.74-5.28-4.77-8.85-2.21-4.77-.85-4.94-2.21-7.66v-6.3h-4.77c-1.82.4-3.63.79-5.45,1.19l-3.57,1.02-2.2,1.19c-.63.4-1.26.8-1.89,1.2l-2.72,2.21-.51-2.89,1.53-2.04,3.4-2.72c.76-.48,1.53-.95,2.29-1.43,1.12-.4,2.23-.81,3.35-1.21,1.47-.37,2.93-.73,4.4-1.1h4.09c1.81.39,2.53.08,2.85-.3.39-.47.22-1.08.22-2.25,0-.85.09-1.95.43-3.23Z"/>
  <path id="eyebrow-2" data-name="eyebrow" class="cls-6" d="M170.06,194.91c.26-1.53.51-3.06.77-4.6,1.19-.13,2.38-.26,3.57-.38,1.36-1.74,2.72-3.49,4.09-5.23,3.92.73,6.91.42,8.94,0,.5-.1,2.47-.71,6.38-1.91,4.39-1.35,4.94-1.55,6.26-1.79,2.83-.52,2.47,0,6.26-.51,2.2-.3,2.88-.55,7.91-1.4.98-.17,1.78-.3,2.3-.38,1.28.13,2.55.26,3.83.38l3.7,1.66,4.98.38c1.8,1.81,3.6,3.63,5.39,5.44-.94-.15-2.49-.41-4.42-.73-3.47-.58-4.05-.68-4.93-.75-1.44-.11-3.52-.11-6.11.45l-5.79.17-6.3.68s-5.96.68-6.81,1.19c-.85.51-11.06,2.89-11.06,2.89-2.96,1.95-5.91,3.9-8.87,5.85-1.79,1.83-3.57,3.66-5.36,5.49-1.57-2.3-3.15-4.6-4.72-6.89Z"/>
  <path id="ear_det-4" data-name="ear det" class="cls-4" d="M263.45,274.54l.38-4.47-1.28-4.6-3.32-3.96-2.94-.13-2.81,2.3-.89,4.09s-.26,1.53.89,1.53c1.25,0,2.47.44,3.7.64,1.37.22,2.06.33,2.55.64.82.51,1.28,1.26,1.53,1.79.72.72,1.45,1.45,2.17,2.17Z"/>
  <polygon id="ear_det-5" data-name="ear det" class="cls-4" points="259.24 258.84 261.92 261.14 264.09 265.99 264.98 270.71 264.73 274.93 264.98 277.1 265.75 281.56 266.51 281.95 266.13 275.69 267.15 269.44 268.68 263.82 268.17 260.37 265.88 256.8 264.34 256.03 261.79 256.41 259.62 258.07 259.24 258.84"/>
  <g>
    <path class="cls-7" d="M113.99,339.22c.11-1.17,1.71-1.99,9.7-4.47,7.96-2.46,11.94-3.7,14.92-4.08,5.03-.65,4.77.14,14.44-.26,8.53-.35,8.59-.97,12.77-.64,4.71.37,3.65,1.07,13.28,2.81.89.16,5.57,1,11.49,2.81,3.44,1.05,5.35,1.84,5.49,3.06.16,1.4-2.06,2.73-3.06,3.32-10.44,6.1-15.66,9.15-22.03,10.69-12.59,3.05-22.8,1.64-25.53,1.22-6.7-1.04-12.65-3.79-24.56-9.3-3.84-1.77-7.06-3.42-6.9-5.17Z"/>
    <path class="cls-5" d="M118.62,339.03c2.42.25,8.22.59,10.69-.29,2.47-.88,5.9-1.6,8.74-2.05,2.84-.45,7.36-.99,8.24-2.24.88-1.25,1.94.7,3.11,1.56,1.17.86,5.77,2.46,7.99,1.87,2.22-.59,5.2-2.07,5.83-2.85.63-.77.78.36,3.11.82,2.32.46,10.6,1.16,12.75,1.44,2.15.28,12.48,1.65,13.67,1.56,1.19-.08-2.73,3.79-5.89,3.76-3.16-.03-7.85-.76-10.31-1.45-2.46-.69-3.44-.07-6.34-.38-2.9-.31-3.13-1.21-5.7-.37-2.57.84-3.69,2.02-6.87,1.82-3.18-.2-5.04.12-8.24-1.14-3.2-1.26-5.28-.66-7.56-.46-2.28.2-5.31,1.01-8.07,1.24-2.76.23-5.55,1.5-8.53,1.22-2.98-.28-9.02-4.31-6.6-4.06h0Z"/>
  </g>
</svg>